<svg xmlns="http://www.w3.org/2000/svg" xmlns:xlink="http://www.w3.org/1999/xlink" version="1.1" width="256" height="256" viewBox="0 0 256 256" xml:space="preserve">
<g style="stroke: none; stroke-width: 0; stroke-dasharray: none; stroke-linecap: butt; stroke-linejoin: miter; stroke-miterlimit: 10; fill: none; fill-rule: nonzero; opacity: 1;" transform="translate(1.4065934065934016 1.4065934065934016) scale(2.81 2.81)">
	<path d="M 71.904 40.979 c 1.02 6.822 -0.589 13.431 -4.065 18.799 c -4.095 6.324 -10.782 10.926 -18.82 12.128 c -7.4 1.106 -14.549 -0.88 -20.136 -4.988 c -5.859 -4.308 -10 -10.95 -10.911 -18.807 c -1.597 -13.775 7.682 -26.769 21.237 -29.693 c 10.651 -2.298 21 1.913 27.188 9.778 C 69.222 31.786 71.18 36.138 71.904 40.979 z" style="stroke: none; stroke-width: 1; stroke-dasharray: none; stroke-linecap: butt; stroke-linejoin: miter; stroke-miterlimit: 10; fill: rgb(90,170,231); fill-rule: nonzero; opacity: 1;" transform=" matrix(1 0 0 1 0 0) " stroke-linecap="round"/>
	<path d="M 54.081 19.363 c 0.044 1.832 -1.282 3.454 -3.142 3.732 l -6.113 0.914 c -2.015 0.301 -3.404 2.178 -3.103 4.193 l 0.236 1.578 c 0.301 2.015 2.179 3.404 4.193 3.103 l 6.761 -1.01 c 2.015 -0.301 3.892 1.088 4.193 3.103 c 0.301 2.015 -1.088 3.892 -3.103 4.193 l -8.339 1.246 c -2.015 0.301 -3.404 2.178 -3.103 4.193 l 0.34 2.274 c 0.585 3.917 4.235 6.618 8.152 6.032 l 1.87 -0.28 c 4.132 -0.617 7.981 2.231 8.599 6.363 l 0.002 0.013 l 1.013 6.778 c 2.055 -1.738 3.844 -3.763 5.3 -6.011 c 3.476 -5.368 5.084 -11.977 4.065 -18.799 c -0.724 -4.841 -2.681 -9.193 -5.506 -12.784 C 63.218 24.154 58.935 21.088 54.081 19.363 z" style="stroke: none; stroke-width: 1; stroke-dasharray: none; stroke-linecap: butt; stroke-linejoin: miter; stroke-miterlimit: 10; fill: rgb(145,220,90); fill-rule: nonzero; opacity: 1;" transform=" matrix(1 0 0 1 0 0) " stroke-linecap="round"/>
	<path d="M 32.969 66.523 c -0.212 -1.416 0.765 -2.735 2.18 -2.947 c 1.416 -0.212 2.392 -1.531 2.18 -2.947 l -0.472 -3.155 c -0.212 -1.416 -1.531 -2.392 -2.947 -2.18 l -13.195 1.972 c 1.948 3.857 4.764 7.149 8.167 9.651 c 1.422 1.046 2.946 1.952 4.549 2.706 L 32.969 66.523 z" style="stroke: none; stroke-width: 1; stroke-dasharray: none; stroke-linecap: butt; stroke-linejoin: miter; stroke-miterlimit: 10; fill: rgb(145,220,90); fill-rule: nonzero; opacity: 1;" transform=" matrix(1 0 0 1 0 0) " stroke-linecap="round"/>
	<path d="M 27.115 37.47 c 1.688 -0.252 2.852 -1.825 2.6 -3.513 l -1.539 -10.301 c -7.172 5.702 -11.312 14.888 -10.203 24.455 c 0.132 1.14 0.34 2.251 0.604 3.337 l 4.282 -0.64 c 1.688 -0.252 2.852 -1.825 2.6 -3.513 l -0.943 -6.31 C 24.263 39.295 25.427 37.722 27.115 37.47 z" style="stroke: none; stroke-width: 1; stroke-dasharray: none; stroke-linecap: butt; stroke-linejoin: miter; stroke-miterlimit: 10; fill: rgb(145,220,90); fill-rule: nonzero; opacity: 1;" transform=" matrix(1 0 0 1 0 0) " stroke-linecap="round"/>
	<path d="M 88.867 40.913 c -0.078 0 -0.156 -0.009 -0.235 -0.028 c -0.537 -0.129 -0.867 -0.67 -0.737 -1.207 c 0.234 -0.973 0.068 -2.019 -0.455 -2.872 l -2.134 -3.476 c -0.477 -0.775 -0.767 -1.668 -0.839 -2.579 l -0.316 -4.067 c -0.078 -1.012 -0.547 -1.932 -1.32 -2.591 l -3.103 -2.646 c -0.697 -0.595 -1.248 -1.354 -1.596 -2.196 l -1.558 -3.768 c -0.383 -0.925 -1.132 -1.674 -2.056 -2.056 l -3.77 -1.558 c -0.845 -0.35 -1.604 -0.901 -2.195 -1.596 l -2.646 -3.103 c -0.649 -0.761 -1.594 -1.243 -2.59 -1.32 L 59.25 5.533 c -0.91 -0.071 -1.802 -0.361 -2.58 -0.839 L 53.193 2.56 c -0.865 -0.531 -1.887 -0.691 -2.871 -0.455 l -3.966 0.955 c -0.887 0.214 -1.824 0.214 -2.713 0 l -3.965 -0.955 c -0.972 -0.234 -2.019 -0.069 -2.872 0.455 L 33.33 4.694 c -0.471 0.291 -1.086 0.141 -1.375 -0.329 c -0.289 -0.471 -0.142 -1.086 0.329 -1.375 l 3.476 -2.134 c 1.303 -0.8 2.9 -1.053 4.387 -0.695 l 3.965 0.955 c 0.581 0.14 1.195 0.14 1.776 0 l 3.966 -0.955 c 1.51 -0.362 3.065 -0.116 4.387 0.695 l 3.477 2.134 c 0.509 0.312 1.093 0.502 1.689 0.549 l 4.066 0.317 c 1.522 0.118 2.965 0.853 3.956 2.016 l 2.646 3.104 c 0.388 0.455 0.885 0.816 1.438 1.045 l 3.77 1.557 c 1.412 0.583 2.557 1.728 3.14 3.141 l 1.559 3.769 c 0.228 0.552 0.589 1.049 1.045 1.438 l 3.103 2.646 c 1.181 1.007 1.896 2.413 2.017 3.958 l 0.316 4.066 c 0.047 0.597 0.237 1.181 0.549 1.688 l 2.135 3.477 c 0.799 1.302 1.053 2.901 0.693 4.387 C 89.728 40.605 89.318 40.913 88.867 40.913 z" style="stroke: none; stroke-width: 1; stroke-dasharray: none; stroke-linecap: butt; stroke-linejoin: miter; stroke-miterlimit: 10; fill: rgb(229,92,92); fill-rule: nonzero; opacity: 1;" transform=" matrix(1 0 0 1 0 0) " stroke-linecap="round"/>
	<path d="M 15.099 78.498 c -0.127 0 -0.256 -0.024 -0.381 -0.076 c -1.413 -0.583 -2.557 -1.728 -3.141 -3.14 l -1.558 -3.77 c -0.229 -0.553 -0.59 -1.05 -1.044 -1.438 l -3.104 -2.646 c -1.163 -0.991 -1.898 -2.434 -2.016 -3.957 l -0.317 -4.065 c -0.046 -0.597 -0.236 -1.181 -0.549 -1.689 L 0.856 54.24 c -0.812 -1.321 -1.058 -2.879 -0.695 -4.387 l 0.955 -3.966 c 0.14 -0.581 0.14 -1.195 0 -1.776 l -0.955 -3.965 c -0.358 -1.486 -0.105 -3.084 0.695 -4.387 l 2.134 -3.476 c 0.312 -0.509 0.502 -1.094 0.549 -1.689 l 0.317 -4.066 c 0.12 -1.545 0.836 -2.951 2.016 -3.958 l 3.104 -2.646 c 0.455 -0.388 0.816 -0.885 1.044 -1.438 l 1.558 -3.77 c 0.583 -1.412 1.729 -2.557 3.141 -3.141 l 3.77 -1.558 c 0.552 -0.228 1.049 -0.589 1.438 -1.044 c 0.358 -0.42 0.988 -0.471 1.41 -0.112 c 0.42 0.358 0.47 0.989 0.112 1.41 c -0.592 0.695 -1.352 1.247 -2.195 1.595 l -3.77 1.558 c -0.924 0.382 -1.674 1.131 -2.056 2.056 l -1.558 3.77 c -0.349 0.844 -0.9 1.603 -1.595 2.195 l -3.104 2.646 c -0.772 0.659 -1.241 1.58 -1.32 2.591 L 5.533 30.75 c -0.071 0.911 -0.361 1.803 -0.839 2.581 L 2.56 36.806 c -0.523 0.853 -0.689 1.899 -0.455 2.872 l 0.955 3.965 c 0.214 0.888 0.214 1.826 0 2.713 l -0.955 3.966 c -0.238 0.986 -0.076 2.007 0.455 2.871 l 2.134 3.477 c 0.478 0.778 0.768 1.67 0.839 2.58 l 0.317 4.066 c 0.077 0.997 0.559 1.941 1.32 2.591 l 3.104 2.646 c 0.694 0.591 1.246 1.351 1.595 2.195 l 1.558 3.77 c 0.382 0.924 1.131 1.673 2.056 2.056 c 0.511 0.211 0.753 0.795 0.542 1.306 C 15.864 78.266 15.492 78.498 15.099 78.498 z" style="stroke: none; stroke-width: 1; stroke-dasharray: none; stroke-linecap: butt; stroke-linejoin: miter; stroke-miterlimit: 10; fill: rgb(229,92,92); fill-rule: nonzero; opacity: 1;" transform=" matrix(1 0 0 1 0 0) " stroke-linecap="round"/>
	<path d="M 38.8 89.998 c -1.065 0 -2.125 -0.292 -3.04 -0.854 l -3.476 -2.134 c -0.509 -0.312 -1.093 -0.503 -1.69 -0.55 l -4.065 -0.316 c -0.551 -0.043 -0.962 -0.524 -0.919 -1.074 c 0.043 -0.551 0.521 -0.955 1.075 -0.92 l 4.066 0.316 c 0.912 0.072 1.805 0.362 2.581 0.84 l 3.475 2.133 c 0.853 0.524 1.899 0.688 2.872 0.455 l 3.965 -0.956 c 0.888 -0.213 1.826 -0.214 2.713 0.001 l 3.966 0.954 c 0.983 0.239 2.006 0.078 2.871 -0.454 l 3.477 -2.134 c 0.776 -0.477 1.668 -0.767 2.58 -0.839 l 4.067 -0.316 c 0.996 -0.077 1.94 -0.559 2.59 -1.319 l 2.646 -3.104 c 0.593 -0.696 1.353 -1.248 2.196 -1.596 l 3.769 -1.558 c 0.938 -0.388 1.668 -1.118 2.056 -2.056 l 1.559 -3.77 c 0.347 -0.843 0.898 -1.603 1.595 -2.195 l 3.104 -2.646 c 0.761 -0.649 1.242 -1.594 1.319 -2.59 l 0.316 -4.066 c 0.072 -0.913 0.362 -1.805 0.84 -2.581 c 0.288 -0.472 0.904 -0.618 1.375 -0.328 c 0.471 0.289 0.618 0.905 0.328 1.375 c -0.312 0.509 -0.502 1.093 -0.549 1.689 l -0.316 4.065 c -0.118 1.523 -0.854 2.966 -2.017 3.957 l -3.104 2.646 c -0.455 0.389 -0.815 0.886 -1.043 1.437 l -1.56 3.771 c -0.592 1.433 -1.707 2.548 -3.14 3.14 l -3.77 1.559 c -0.552 0.229 -1.049 0.589 -1.438 1.044 l -2.646 3.104 c -0.991 1.163 -2.434 1.898 -3.957 2.017 l -4.066 0.316 c -0.596 0.047 -1.18 0.236 -1.688 0.549 l -3.477 2.135 c -1.305 0.8 -2.902 1.053 -4.387 0.693 l -3.966 -0.954 c -0.58 -0.141 -1.195 -0.141 -1.776 0 l -3.965 0.955 C 39.705 89.945 39.252 89.998 38.8 89.998 z" style="stroke: none; stroke-width: 1; stroke-dasharray: none; stroke-linecap: butt; stroke-linejoin: miter; stroke-miterlimit: 10; fill: rgb(229,92,92); fill-rule: nonzero; opacity: 1;" transform=" matrix(1 0 0 1 0 0) " stroke-linecap="round"/>
	<path d="M 66.143 73.191 c -0.393 0 -0.765 -0.232 -0.924 -0.618 c -0.211 -0.511 0.031 -1.095 0.542 -1.306 l 2.441 -1.009 c 0.925 -0.383 1.674 -1.132 2.057 -2.057 l 1.009 -2.441 c 0.347 -0.842 0.898 -1.601 1.595 -2.194 l 2.01 -1.714 c 0.761 -0.649 1.242 -1.594 1.319 -2.591 l 0.205 -2.634 c 0.072 -0.911 0.362 -1.804 0.839 -2.581 l 1.382 -2.251 c 0.531 -0.865 0.692 -1.885 0.455 -2.871 l -0.619 -2.568 c -0.213 -0.887 -0.214 -1.826 0 -2.713 l 0.618 -2.567 c 0.235 -0.973 0.069 -2.02 -0.454 -2.873 l -1.382 -2.251 c -0.477 -0.775 -0.767 -1.668 -0.839 -2.579 l -0.205 -2.634 c -0.077 -0.997 -0.559 -1.941 -1.319 -2.591 l -2.01 -1.714 c -0.697 -0.594 -1.248 -1.354 -1.596 -2.195 l -1.008 -2.441 c -0.211 -0.51 0.031 -1.095 0.542 -1.306 c 0.51 -0.208 1.095 0.031 1.306 0.542 l 1.009 2.441 c 0.228 0.551 0.589 1.048 1.045 1.437 l 2.009 1.714 c 1.163 0.992 1.898 2.434 2.017 3.957 l 0.205 2.633 c 0.047 0.597 0.237 1.181 0.549 1.688 l 1.383 2.252 c 0.8 1.303 1.053 2.902 0.693 4.387 l -0.617 2.567 c -0.141 0.582 -0.141 1.196 -0.001 1.776 l 0.619 2.568 c 0.357 1.485 0.104 3.084 -0.694 4.387 l -1.382 2.251 c -0.312 0.509 -0.503 1.094 -0.55 1.689 l -0.205 2.633 c -0.118 1.523 -0.854 2.967 -2.017 3.958 l -2.01 1.714 c -0.455 0.389 -0.816 0.886 -1.043 1.436 l -1.01 2.442 c -0.583 1.412 -1.729 2.558 -3.141 3.141 l -2.441 1.009 C 66.399 73.167 66.271 73.191 66.143 73.191 z" style="stroke: none; stroke-width: 1; stroke-dasharray: none; stroke-linecap: butt; stroke-linejoin: miter; stroke-miterlimit: 10; fill: rgb(229,92,92); fill-rule: nonzero; opacity: 1;" transform=" matrix(1 0 0 1 0 0) " stroke-linecap="round"/>
	<path d="M 11.912 36.429 c -0.178 0 -0.359 -0.048 -0.522 -0.148 c -0.471 -0.289 -0.618 -0.905 -0.329 -1.375 c 0.312 -0.509 0.502 -1.093 0.549 -1.689 l 0.205 -2.633 c 0.119 -1.523 0.853 -2.965 2.016 -3.957 l 2.01 -1.714 c 0.455 -0.388 0.816 -0.885 1.045 -1.438 l 1.008 -2.441 c 0.584 -1.412 1.729 -2.557 3.141 -3.141 l 2.441 -1.009 c 0.552 -0.228 1.049 -0.589 1.437 -1.044 l 1.714 -2.01 c 0.992 -1.163 2.434 -1.897 3.957 -2.016 l 2.633 -0.205 c 0.596 -0.046 1.18 -0.236 1.689 -0.549 l 2.251 -1.382 c 1.301 -0.799 2.899 -1.052 4.387 -0.695 l 2.568 0.619 c 0.581 0.14 1.195 0.14 1.776 0 l 2.568 -0.619 c 1.509 -0.362 3.066 -0.116 4.387 0.695 l 2.251 1.382 c 0.51 0.312 1.094 0.502 1.689 0.549 l 2.633 0.205 c 1.523 0.119 2.967 0.854 3.958 2.016 c 0.358 0.42 0.309 1.051 -0.112 1.41 c -0.419 0.358 -1.052 0.309 -1.409 -0.112 c -0.649 -0.761 -1.594 -1.242 -2.591 -1.32 l -2.634 -0.205 c -0.91 -0.071 -1.802 -0.361 -2.58 -0.838 l -2.252 -1.382 c -0.863 -0.53 -1.884 -0.692 -2.871 -0.455 l -2.568 0.619 c -0.888 0.214 -1.826 0.214 -2.713 0 l -2.568 -0.619 c -0.974 -0.234 -2.019 -0.068 -2.872 0.455 l -2.251 1.382 c -0.777 0.478 -1.669 0.768 -2.58 0.839 l -2.634 0.205 c -0.997 0.077 -1.941 0.559 -2.591 1.32 l -1.714 2.01 c -0.592 0.695 -1.351 1.246 -2.194 1.595 l -2.442 1.009 c -0.924 0.382 -1.674 1.131 -2.056 2.056 l -1.009 2.441 c -0.349 0.844 -0.9 1.603 -1.595 2.195 l -2.01 1.714 c -0.761 0.649 -1.243 1.594 -1.32 2.591 l -0.205 2.633 c -0.071 0.911 -0.361 1.803 -0.839 2.581 C 12.576 36.26 12.248 36.429 11.912 36.429 z" style="stroke: none; stroke-width: 1; stroke-dasharray: none; stroke-linecap: butt; stroke-linejoin: miter; stroke-miterlimit: 10; fill: rgb(229,92,92); fill-rule: nonzero; opacity: 1;" transform=" matrix(1 0 0 1 0 0) " stroke-linecap="round"/>
	<path d="M 40.198 81.176 c -1.064 0 -2.125 -0.292 -3.041 -0.854 l -2.251 -1.382 c -0.509 -0.312 -1.093 -0.503 -1.69 -0.55 l -2.632 -0.205 c -1.523 -0.118 -2.965 -0.854 -3.957 -2.017 l -1.714 -2.01 c -0.389 -0.455 -0.886 -0.816 -1.437 -1.043 l -2.442 -1.01 c -1.412 -0.583 -2.557 -1.728 -3.141 -3.141 l -1.009 -2.441 c -0.228 -0.552 -0.589 -1.049 -1.044 -1.437 l -2.01 -1.714 c -1.163 -0.991 -1.897 -2.435 -2.016 -3.958 l -0.205 -2.634 c -0.046 -0.595 -0.236 -1.179 -0.549 -1.689 l -1.381 -2.25 c -0.289 -0.471 -0.142 -1.087 0.329 -1.376 c 0.472 -0.288 1.086 -0.142 1.375 0.329 l 1.382 2.251 c 0.478 0.779 0.768 1.671 0.839 2.58 l 0.205 2.635 c 0.078 0.997 0.559 1.941 1.32 2.591 l 2.01 1.714 c 0.694 0.592 1.246 1.351 1.595 2.194 l 1.009 2.441 c 0.382 0.925 1.131 1.674 2.056 2.057 l 2.441 1.009 c 0.841 0.347 1.601 0.897 2.195 1.594 l 1.714 2.011 c 0.649 0.761 1.594 1.242 2.591 1.319 l 2.633 0.205 c 0.912 0.072 1.805 0.362 2.581 0.84 l 2.25 1.381 c 0.853 0.524 1.9 0.688 2.872 0.455 l 2.569 -0.619 c 0.887 -0.213 1.825 -0.214 2.713 0.001 l 2.568 0.617 c 0.983 0.239 2.006 0.078 2.871 -0.454 l 2.251 -1.382 c 0.777 -0.477 1.67 -0.767 2.58 -0.839 c 0.545 -0.04 1.032 0.368 1.075 0.919 c 0.043 0.55 -0.368 1.031 -0.919 1.075 c -0.596 0.047 -1.181 0.237 -1.689 0.55 l -2.251 1.382 c -1.304 0.8 -2.902 1.054 -4.387 0.693 l -2.568 -0.617 c -0.581 -0.141 -1.195 -0.141 -1.776 0 l -2.568 0.618 C 41.102 81.123 40.649 81.176 40.198 81.176 z" style="stroke: none; stroke-width: 1; stroke-dasharray: none; stroke-linecap: butt; stroke-linejoin: miter; stroke-miterlimit: 10; fill: rgb(229,92,92); fill-rule: nonzero; opacity: 1;" transform=" matrix(1 0 0 1 0 0) " stroke-linecap="round"/>
</g>
</svg>